<svg width="41" height="40" viewBox="0 0 41 40" fill="none" xmlns="http://www.w3.org/2000/svg">
<g clip-path="url(#clip0_297_612)">
<path d="M7.38508 10.7628C6.50237 10.9347 5.57111 10.8642 4.72812 10.5556C4.47655 10.463 4.18526 10.5996 4.09699 10.851C4.05285 10.97 4.05727 11.1067 4.11023 11.2258C4.1676 11.3448 4.2647 11.4374 4.39269 11.4815C5.04149 11.7196 5.72117 11.8386 6.42293 11.8386C6.80691 11.8386 7.1953 11.8034 7.56604 11.7284C7.83526 11.6755 8.01181 11.4153 7.95884 11.1508C7.90588 10.8907 7.64989 10.7099 7.38067 10.7628H7.38508Z" fill="#144B66"/>
<path d="M2.21247 2.46032C1.9962 2.31482 1.67401 2.37655 1.52395 2.5926C1.37389 2.81746 1.43127 3.1217 1.65636 3.27602C1.7358 3.33334 1.8329 3.3642 1.93441 3.3642C2.09771 3.3642 2.24777 3.28043 2.34046 3.14815C2.41549 3.03792 2.44197 2.90565 2.4199 2.77778C2.39342 2.64551 2.3228 2.53528 2.21247 2.46032Z" fill="#144B66"/>
<path d="M2.49498 9.70017C2.31844 9.90299 2.34051 10.216 2.54794 10.3924C2.63622 10.4718 2.75097 10.5159 2.87013 10.5159C3.01137 10.5159 3.14819 10.4541 3.24087 10.3439C3.32914 10.2469 3.37328 10.119 3.36004 9.98676C3.35121 9.85449 3.29383 9.73544 3.19232 9.64726C2.99371 9.4753 2.66711 9.50176 2.49498 9.70017Z" fill="#144B66"/>
<path d="M11.3661 5.92152C11.3661 6.70195 11.1852 7.4515 10.8365 8.14374C10.7747 8.25838 10.7659 8.39507 10.8056 8.51852C10.8497 8.64639 10.938 8.7478 11.0528 8.80512C11.1234 8.84039 11.1984 8.85803 11.2734 8.85803C11.4632 8.85803 11.6309 8.75662 11.7148 8.58907C12.1341 7.76896 12.3503 6.84745 12.3503 5.92152C12.3503 4.83687 12.0546 3.77426 11.4941 2.84833C11.3573 2.62787 11.0395 2.5441 10.8144 2.68519C10.5849 2.82628 10.5099 3.13052 10.6467 3.3642C11.119 4.1314 11.3661 5.01764 11.3661 5.92152Z" fill="#144B66"/>
<path d="M1.48864 5.92151C1.48864 5.5291 1.53277 5.1455 1.62104 4.77954C1.65194 4.65167 1.62987 4.51939 1.55925 4.40476C1.49305 4.29453 1.38271 4.21516 1.25472 4.1843C0.989904 4.12257 0.720677 4.29012 0.658888 4.55026C0.552963 4.99999 0.5 5.45855 0.5 5.92151C0.5 6.5432 0.597098 7.15167 0.786881 7.73368C0.84867 7.94091 1.03845 8.0776 1.25472 8.0776C1.30768 8.0776 1.35623 8.06878 1.40478 8.05555C1.66518 7.97178 1.80641 7.694 1.72697 7.43386C1.56808 6.94885 1.48864 6.44179 1.48864 5.92151Z" fill="#144B66"/>
<path d="M8.70921 1.5432C8.77541 1.58289 8.85486 1.60052 8.9343 1.60052C9.11967 1.60052 9.28738 1.49911 9.37124 1.33597C9.43303 1.21693 9.44627 1.08465 9.40655 0.961194C9.36683 0.833328 9.28297 0.731917 9.1638 0.670188C8.92989 0.546732 8.62094 0.643733 8.49736 0.87742C8.43557 0.996467 8.42674 1.12874 8.46646 1.25661C8.50619 1.38006 8.59004 1.48148 8.70921 1.5432Z" fill="#144B66"/>
<path d="M4.16764 1.47708C4.23825 1.47708 4.30887 1.45944 4.37507 1.43298C5.01945 1.13757 5.71238 0.987658 6.42737 0.987658C6.62598 0.987658 6.82018 1.00089 7.00113 1.02293C7.27919 1.0538 7.51752 0.855383 7.54842 0.586424C7.57931 0.317465 7.38953 0.0749601 7.1203 0.0396867C6.05222 -0.0837701 4.95325 0.0837784 3.96903 0.533514C3.72187 0.648152 3.61153 0.939158 3.72187 1.19048C3.80573 1.36244 3.98227 1.47708 4.17205 1.47708H4.16764Z" fill="#144B66"/>
<path d="M14.8219 31.3669V25.9392C14.8219 23.4921 16.8168 21.4991 19.2664 21.4991H22.7222V18.0467C22.7222 15.5997 24.7171 13.6067 27.1666 13.6067H31.1167C31.8097 13.6067 32.432 13.8933 32.8822 14.3519L38.814 8.42593C38.814 8.42593 38.7919 8.42593 38.7831 8.42593H18.2821C13.1095 8.42593 8.89893 12.6323 8.89893 17.7998V38.2804C8.89893 38.2804 8.89893 38.3025 8.89893 38.3157L14.9852 32.2355C14.8837 31.9665 14.8263 31.6711 14.8263 31.3669H14.8219Z" fill="#F9FAFB"/>
<path d="M39.9968 7.94533C39.6746 7.62346 39.2421 7.44268 38.7831 7.44268H18.2821C15.687 7.44268 13.3169 8.39947 11.4985 9.97795L9.34029 7.82187C9.68455 7.28395 9.88757 6.64903 9.88757 5.9612C9.88757 4.05644 8.33841 2.50882 6.43176 2.50882C4.52511 2.50882 2.97595 4.05644 2.97595 5.9612C2.97595 7.86596 4.52511 9.41358 6.43176 9.41358C7.11586 9.41358 7.75583 9.21076 8.29428 8.86684L10.4525 11.0229C8.87245 12.8395 7.91471 15.2116 7.91471 17.7998V38.2804C7.91471 38.739 8.09567 39.1711 8.41786 39.4929C8.74446 39.8192 9.17699 39.9956 9.63158 39.9956H34.0826C37.6223 39.9956 40.4999 37.1164 40.4999 33.5847V9.15785C40.4999 8.6993 40.3234 8.2672 39.9968 7.94533ZM8.89452 38.2804V17.7998C8.89452 12.6323 13.105 8.42593 18.2777 8.42593H38.7787C38.7787 8.42593 38.8007 8.42593 38.8096 8.42593L32.8778 14.3519C32.4276 13.8933 31.8053 13.6067 31.1123 13.6067H27.1622C24.7127 13.6067 22.7178 15.5996 22.7178 18.0467V21.4991H19.2619C16.8124 21.4991 14.8175 23.4921 14.8175 25.9392V31.3668C14.8175 31.6711 14.8749 31.9665 14.9764 32.2354L8.89011 38.3157C8.89011 38.3157 8.89011 38.2937 8.89011 38.2804H8.89452ZM32.5953 16.0758V21.5035C32.5953 23.4083 31.0461 24.9559 29.1395 24.9559H25.1893C24.3728 24.9559 23.7064 24.2901 23.7064 23.4744V18.0467C23.7064 16.142 25.2556 14.5944 27.1622 14.5944H31.1123C31.9288 14.5944 32.5953 15.2601 32.5953 16.0758ZM15.8061 31.3668V25.9392C15.8061 24.0344 17.3553 22.4868 19.2619 22.4868H21.7291V23.4744C21.7291 25.2116 23.0179 26.6534 24.6906 26.8915V29.3915C24.6906 31.2963 23.1415 32.8439 21.2348 32.8439H17.2847C16.4682 32.8439 15.8017 32.1781 15.8017 31.3624L15.8061 31.3668ZM4.45008 5.9612C4.45008 4.87214 5.3372 3.98589 6.42735 3.98589C7.51749 3.98589 8.40462 4.87214 8.40462 5.9612C8.40462 7.05027 7.51749 7.93651 6.42735 7.93651C5.3372 7.93651 4.45008 7.05027 4.45008 5.9612Z" fill="#144B66"/>
<path d="M17.2891 32.8483H21.2392C23.1459 32.8483 24.695 31.3007 24.695 29.3959V26.8959C23.0223 26.6578 21.7335 25.216 21.7335 23.4788V22.4912H19.2664C17.3597 22.4912 15.8105 24.0388 15.8105 25.9436V31.3713C15.8105 32.1869 16.4726 32.8527 17.2935 32.8527L17.2891 32.8483Z" fill="#F9FAFB"/>
<path d="M31.1168 14.5944H27.1666C25.26 14.5944 23.7108 16.142 23.7108 18.0467V23.4744C23.7108 24.2901 24.3773 24.9559 25.1938 24.9559H29.1439C31.0505 24.9559 32.5997 23.4083 32.5997 21.5035V16.0758C32.5997 15.2601 31.9333 14.5944 31.1168 14.5944Z" fill="#F9FAFB"/>
</g>
<defs>
<clipPath id="clip0_297_612">
<rect width="40" height="40" fill="white" transform="translate(0.5)"/>
</clipPath>
</defs>
</svg>
