<svg xmlns="http://www.w3.org/2000/svg" width="48" height="48" viewBox="0 0 48 48" fill="none">
    <g clip-path="url(#clip0_297_590)">
        <path
            d="M24 0C20.62 0 17.41 0.7 14.5 1.96V12C14.5 13.93 16.07 15.5 18 15.5H30C30.28 15.5 30.5 15.72 30.5 16C30.5 16.28 30.28 16.5 30 16.5H18C16.58 16.5 15.33 15.83 14.5 14.79V20C14.5 21.93 16.07 23.5 18 23.5H30C30.28 23.5 30.5 23.72 30.5 24C30.5 24.28 30.28 24.5 30 24.5H18C16.58 24.5 15.33 23.83 14.5 22.79V28C14.5 29.93 16.07 31.5 18 31.5H30C30.28 31.5 30.5 31.72 30.5 32C30.5 32.28 30.28 32.5 30 32.5H18C16.58 32.5 15.33 31.83 14.5 30.79V34C14.5 36.48 12.48 38.5 10 38.5H6C5.72 38.5 5.5 38.28 5.5 38C5.5 37.72 5.72 37.5 6 37.5H10C11.93 37.5 13.5 35.93 13.5 34V30.79C12.67 31.82 11.42 32.5 10 32.5H6C5.72 32.5 5.5 32.28 5.5 32C5.5 31.72 5.72 31.5 6 31.5H10C11.93 31.5 13.5 29.93 13.5 28V14.79C12.67 15.82 11.42 16.5 10 16.5H6C5.72 16.5 5.5 16.28 5.5 16C5.5 15.72 5.72 15.5 6 15.5H10C11.93 15.5 13.5 13.93 13.5 12V2.42C5.51 6.31 0 14.51 0 24C0 37.25 10.75 48 24 48C37.25 48 48 37.25 48 24C48 10.75 37.25 0 24 0Z"
            fill="#144B66" />
        <path
            d="M10 15.5H6C5.72 15.5 5.5 15.72 5.5 16C5.5 16.28 5.72 16.5 6 16.5H10C11.42 16.5 12.67 15.83 13.5 14.79V12C13.5 13.93 11.93 15.5 10 15.5Z"
            fill="#667085" />
        <path
            d="M13.5 28C13.5 29.93 11.93 31.5 10 31.5H6C5.72 31.5 5.5 31.72 5.5 32C5.5 32.28 5.72 32.5 6 32.5H10C11.42 32.5 12.67 31.83 13.5 30.79V34C13.5 35.93 11.93 37.5 10 37.5H6C5.72 37.5 5.5 37.72 5.5 38C5.5 38.28 5.72 38.5 6 38.5H10C12.48 38.5 14.5 36.48 14.5 34V30.79C13.88 30.02 13.5 29.06 13.5 28Z"
            fill="#667085" />
        <path
            d="M13.5 14.79V28C13.5 29.06 13.88 30.02 14.5 30.79C15.33 31.82 16.58 32.5 18 32.5C17.72 32.5 17.5 32.28 17.5 32C17.5 31.72 17.72 31.5 18 31.5C16.07 31.5 14.5 29.93 14.5 28V22.79C15.33 23.82 16.58 24.5 18 24.5C17.72 24.5 17.5 24.28 17.5 24C17.5 23.72 17.72 23.5 18 23.5C16.07 23.5 14.5 21.93 14.5 20V14.79C15.33 15.82 16.58 16.5 18 16.5C17.72 16.5 17.5 16.28 17.5 16C17.5 15.72 17.72 15.5 18 15.5C16.07 15.5 14.5 13.93 14.5 12V1.96001C14.16 2.11001 13.83 2.26001 13.5 2.42001V14.8V14.79Z"
            fill="#98A2B3" />
        <path
            d="M17.5 16C17.5 16.28 17.72 16.5 18 16.5H30C30.28 16.5 30.5 16.28 30.5 16C30.5 15.72 30.28 15.5 30 15.5H18C17.72 15.5 17.5 15.72 17.5 16Z"
            fill="#F9FAFB" />
        <path
            d="M17.5 24C17.5 24.28 17.72 24.5 18 24.5H30C30.28 24.5 30.5 24.28 30.5 24C30.5 23.72 30.28 23.5 30 23.5H18C17.72 23.5 17.5 23.72 17.5 24Z"
            fill="#F9FAFB" />
        <path
            d="M17.5 32C17.5 32.28 17.72 32.5 18 32.5H30C30.28 32.5 30.5 32.28 30.5 32C30.5 31.72 30.28 31.5 30 31.5H18C17.72 31.5 17.5 31.72 17.5 32Z"
            fill="#F9FAFB" />
    </g>
    <defs>
    </defs>
</svg>