<?xml version="1.0" encoding="UTF-8"?><svg id="Layer_2" xmlns="http://www.w3.org/2000/svg" xmlns:xlink="http://www.w3.org/1999/xlink" viewBox="0 0 49 49"><defs><style>.cls-1{stroke:#d0d5dd;}.cls-1,.cls-2,.cls-3,.cls-4,.cls-5{fill:none;}.cls-1,.cls-3,.cls-4{stroke-linecap:round;}.cls-1,.cls-3,.cls-4,.cls-5{stroke-miterlimit:10;}.cls-6{clip-path:url(#clippath);}.cls-2{stroke-width:0px;}.cls-3,.cls-5{stroke:#144b66;}.cls-4{stroke:#eaecf0;}</style><clipPath id="clippath"><path class="cls-2" d="M24.5,0C10.99,0,0,10.99,0,24.5s10.99,24.5,24.5,24.5,24.5-10.99,24.5-24.5S38.01,0,24.5,0Z"/></clipPath></defs><g id="Menu-Button--idle"><g id="v5"><g id="v3"><g class="cls-6"><path class="cls-4" d="M6.5,16.5h4c2.21,0,4-1.79,4-4"/><path class="cls-4" d="M6.5,32.5h4c2.21,0,4-1.79,4-4"/><path class="cls-4" d="M6.5,38.5h4c2.21,0,4-1.79,4-4v-6"/><path class="cls-1" d="M14.5,12.5V.5"/><path class="cls-1" d="M18.5,16.5c-2.21,0-4-1.79-4-4"/><path class="cls-1" d="M14.5,12.5v8c0,2.21,1.79,4,4,4"/><path class="cls-1" d="M14.5,20.5v8c0,2.21,1.79,4,4,4"/><path class="cls-3" d="M30.5,16.5h-12"/><path class="cls-3" d="M18.5,24.5h12"/><path class="cls-3" d="M18.5,32.5h12"/><rect class="cls-5" x=".5" y=".5" width="48" height="48" rx="24" ry="24"/></g></g></g></g></svg>