<svg width="241" height="442" viewBox="0 0 241 442" fill="none" xmlns="http://www.w3.org/2000/svg">
<g opacity="0.5">
<path d="M132.5 320L132.5 278C132.5 269.163 139.663 262 148.5 262L192 262C200.284 262 207 255.284 207 247L207 157.5C207 153.082 203.418 149.5 199 149.5L159.5 149.5C155.082 149.5 151.5 145.918 151.5 141.5V141.5C151.5 137.082 147.918 133.5 143.5 133.5L135.5 133.5L51 133.5C37.7452 133.5 27 122.755 27 109.5L27 57C27 50.3726 32.3726 45 39 45L89.9998 45C96.6272 45 102 39.6274 102 33L102 27C102 22.5817 105.582 19 110 19L128.5 19C135.127 19 140.5 13.6274 140.5 7L140.5 4.5" stroke="#ADDDC1" stroke-width="4"/>
<path d="M180 314C180 312.895 179.105 312 178 312H160C157.791 312 156 313.791 156 316V326C156 327.105 156.895 328 158 328H176C178.209 328 180 326.209 180 324V314Z" fill="#ADDDC1"/>
<path d="M133 342L149 342C153.418 342 157 338.418 157 334L157 327" stroke="#ADDDC1" stroke-linecap="round"/>
<path d="M193 261.5C192.724 261.5 192.5 261.724 192.5 262C192.5 262.276 192.724 262.5 193 262.5L193 261.5ZM214.333 247C214.333 248.473 215.527 249.667 217 249.667C218.473 249.667 219.667 248.473 219.667 247C219.667 245.527 218.473 244.333 217 244.333C215.527 244.333 214.333 245.527 214.333 247ZM209 261.5L193 261.5L193 262.5L209 262.5L209 261.5ZM217.5 254L217.5 247L216.5 247L216.5 254L217.5 254ZM209 262.5C213.694 262.5 217.5 258.694 217.5 254L216.5 254C216.5 258.142 213.142 261.5 209 261.5L209 262.5Z" fill="#ADDDC1"/>
<path d="M206.5 196C206.5 196.276 206.724 196.5 207 196.5C207.276 196.5 207.5 196.276 207.5 196L206.5 196ZM192 174.667C193.473 174.667 194.667 173.473 194.667 172C194.667 170.527 193.473 169.333 192 169.333C190.527 169.333 189.333 170.527 189.333 172C189.333 173.473 190.527 174.667 192 174.667ZM206.5 180L206.5 196L207.5 196L207.5 180L206.5 180ZM199 171.5L192 171.5L192 172.5L199 172.5L199 171.5ZM207.5 180C207.5 175.306 203.694 171.5 199 171.5L199 172.5C203.142 172.5 206.5 175.858 206.5 180L207.5 180Z" fill="#84CCA2"/>
<path d="M154 261.5C153.724 261.5 153.5 261.724 153.5 262C153.5 262.276 153.724 262.5 154 262.5L154 261.5ZM170 252.667C171.473 252.667 172.667 251.473 172.667 250C172.667 248.527 171.473 247.333 170 247.333C168.527 247.333 167.333 248.527 167.333 250C167.333 251.473 168.527 252.667 170 252.667ZM166 261.5L154 261.5L154 262.5L166 262.5L166 261.5ZM169.5 250L169.5 258L170.5 258L170.5 250L169.5 250ZM166 262.5C168.485 262.5 170.5 260.485 170.5 258L169.5 258C169.5 259.933 167.933 261.5 166 261.5L166 262.5Z" fill="#ADDDC1"/>
<path d="M162 262.5C162.276 262.5 162.5 262.276 162.5 262C162.5 261.724 162.276 261.5 162 261.5L162 262.5ZM146 271.333C144.527 271.333 143.333 272.527 143.333 274C143.333 275.473 144.527 276.667 146 276.667C147.473 276.667 148.667 275.473 148.667 274C148.667 272.527 147.473 271.333 146 271.333ZM150 262.5L162 262.5L162 261.5L150 261.5L150 262.5ZM146.5 274L146.5 266L145.5 266L145.5 274L146.5 274ZM150 261.5C147.515 261.5 145.5 263.515 145.5 266L146.5 266C146.5 264.067 148.067 262.5 150 262.5L150 261.5Z" fill="#84CCA2"/>
<path d="M53.6667 111.5C53.6667 110.027 52.4728 108.833 51 108.833C49.5272 108.833 48.3333 110.027 48.3333 111.5C48.3333 112.973 49.5272 114.167 51 114.167C52.4728 114.167 53.6667 112.973 53.6667 111.5ZM27.5 71C27.5 70.7239 27.2761 70.5 27 70.5C26.7239 70.5 26.5 70.7239 26.5 71L27.5 71ZM39 111.5L39 111L39 111.5ZM39 112L51 112L51 111L39 111L39 112ZM27.5 99.5L27.5 71L26.5 71L26.5 99.5L27.5 99.5ZM39 111C32.6487 111 27.5 105.851 27.5 99.5L26.5 99.5C26.5 106.404 32.0964 112 39 112L39 111Z" fill="#84CCA2"/>
<path d="M51 44.5C50.7239 44.5 50.5 44.7239 50.5 45C50.5 45.2761 50.7239 45.5 51 45.5L51 44.5ZM72.3333 30C72.3333 31.4728 73.5272 32.6667 75 32.6667C76.4728 32.6667 77.6667 31.4728 77.6667 30C77.6667 28.5272 76.4728 27.3333 75 27.3333C73.5272 27.3333 72.3333 28.5272 72.3333 30ZM67 44.5L51 44.5L51 45.5L67 45.5L67 44.5ZM75.5 37L75.5 30L74.5 30L74.5 37L75.5 37ZM67 45.5C71.6944 45.5 75.5 41.6944 75.5 37L74.5 37C74.5 41.1421 71.1421 44.5 67 44.5L67 45.5Z" fill="#ADDDC1"/>
<path d="M117 19.5C116.724 19.5 116.5 19.2761 116.5 19C116.5 18.7239 116.724 18.5 117 18.5L117 19.5ZM133 28.3333C134.473 28.3333 135.667 29.5272 135.667 31C135.667 32.4728 134.473 33.6667 133 33.6667C131.527 33.6667 130.333 32.4728 130.333 31C130.333 29.5272 131.527 28.3333 133 28.3333ZM129 19.5L117 19.5L117 18.5L129 18.5L129 19.5ZM132.5 31L132.5 23L133.5 23L133.5 31L132.5 31ZM129 18.5C131.485 18.5 133.5 20.5147 133.5 23L132.5 23C132.5 21.067 130.933 19.5 129 19.5L129 18.5Z" fill="#84CCA2"/>
<path d="M133 274.5C133.276 274.5 133.5 274.724 133.5 275C133.5 275.276 133.276 275.5 133 275.5L133 274.5ZM111.667 260C111.667 261.473 110.473 262.667 109 262.667C107.527 262.667 106.333 261.473 106.333 260C106.333 258.527 107.527 257.333 109 257.333C110.473 257.333 111.667 258.527 111.667 260ZM117 274.5L133 274.5L133 275.5L117 275.5L117 274.5ZM108.5 267L108.5 260L109.5 260L109.5 267L108.5 267ZM117 275.5C112.306 275.5 108.5 271.694 108.5 267L109.5 267C109.5 271.142 112.858 274.5 117 274.5L117 275.5Z" fill="#84CCA2"/>
<path d="M85 246C85 244.895 85.8954 244 87 244H105C107.209 244 109 245.791 109 248V258C109 259.105 108.105 260 107 260H89C86.7909 260 85 258.209 85 256V246Z" fill="#84CCA2"/>
<path d="M241 233C241 231.895 240.105 231 239 231H221C218.791 231 217 232.791 217 235V245C217 246.105 217.895 247 219 247H237C239.209 247 241 245.209 241 243V233Z" fill="#84CCA2"/>
<circle cx="150" cy="134" r="4" fill="#84CCA2"/>
<circle cx="141" cy="4" r="4" fill="#EAECF0"/>
<path opacity="0.4" d="M132.5 320L132.951 431.049C132.978 437.657 138.343 443 144.951 443H191C199.837 443 207 450.163 207 459V560" stroke="#84CCA2" stroke-width="4"/>
<path d="M0.333333 50C0.333333 51.4728 1.52724 52.6667 3 52.6667C4.47276 52.6667 5.66667 51.4728 5.66667 50C5.66667 48.5272 4.47276 47.3333 3 47.3333C1.52724 47.3333 0.333334 48.5272 0.333333 50ZM26.5 90.5C26.5 90.7761 26.7239 91 27 91C27.2761 91 27.5 90.7761 27.5 90.5L26.5 90.5ZM15 50L15 50.5L15 50ZM15 49.5L3 49.5L3 50.5L15 50.5L15 49.5ZM26.5 62L26.5 90.5L27.5 90.5L27.5 62L26.5 62ZM15 50.5C21.3513 50.5 26.5 55.6487 26.5 62L27.5 62C27.5 55.0964 21.9036 49.5 15 49.5L15 50.5Z" fill="#84CCA2"/>
<path d="M141.667 48C142.771 48 143.667 47.1046 143.667 46L143.667 36C143.667 33.7909 141.876 32 139.667 32L135 32C133.895 32 133 32.8954 133 34L133 44C133 46.2091 134.791 48 137 48L141.667 48Z" fill="#84CCA2"/>
<path d="M131 132.5C131.276 132.5 131.5 132.724 131.5 133C131.5 133.276 131.276 133.5 131 133.5L131 132.5ZM109.667 118C109.667 119.473 108.473 120.667 107 120.667C105.527 120.667 104.333 119.473 104.333 118C104.333 116.527 105.527 115.333 107 115.333C108.473 115.333 109.667 116.527 109.667 118ZM115 132.5L131 132.5L131 133.5L115 133.5L115 132.5ZM106.5 125L106.5 118L107.5 118L107.5 125L106.5 125ZM115 133.5C110.306 133.5 106.5 129.694 106.5 125L107.5 125C107.5 129.142 110.858 132.5 115 132.5L115 133.5Z" fill="#F2F4F7"/>
<path d="M90 109C90 107.895 90.8954 107 92 107H102C104.209 107 106 108.791 106 111V115.667C106 116.771 105.105 117.667 104 117.667H94C91.7909 117.667 90 115.876 90 113.667V109Z" fill="#EAECF0"/>
</g>
</svg>
