<?xml version="1.0" encoding="UTF-8"?><svg id="Layer_2" xmlns="http://www.w3.org/2000/svg" viewBox="0 0 72.5 79.6"><defs><style>.cls-1{fill:#cce7f5;}.cls-1,.cls-2,.cls-3,.cls-4,.cls-5,.cls-6,.cls-7,.cls-8,.cls-9{stroke-width:0px;}.cls-2,.cls-8{fill:#99cfeb;}.cls-2,.cls-10,.cls-9{opacity:.4;}.cls-3{fill:none;}.cls-4{fill:#667085;}.cls-5{fill:#eaecf0;}.cls-6,.cls-9{fill:#bbdff2;}.cls-7{fill:#f6eaa7;}.cls-11{opacity:.5;}.cls-12{opacity:.75;}</style></defs><g id="Features__Icons"><g id="Automated-Watering"><g id="v2"><path class="cls-5" d="M37.5,45.42h-21.01l7.05,32.11c.2.92,1.01,1.57,1.95,1.57h24.02c.94,0,1.75-.65,1.95-1.57l7.05-32.11h-21.01Z"/><g class="cls-12"><circle class="cls-9" cx="1.5" cy="35.1" r="1.5"/></g><g class="cls-12"><path class="cls-2" d="M7.26,16.74c-.85,0-1.54.69-1.54,1.54s.69,1.54,1.54,1.54,1.54-.69,1.54-1.54-.69-1.54-1.54-1.54ZM7.26,19.2c-.51,0-.92-.41-.92-.92s.41-.92.92-.92.92.41.92.92-.41.92-.92.92Z"/></g><path class="cls-5" d="M30.04,7.64h42.46v8H28.04c-1.1,0-2-.9-2-2v-2c0-2.21,1.79-4,4-4Z"/><rect class="cls-2" x="32.61" y="23.1" width="7.95" height="14.32"/><path class="cls-4" d="M39.06,37.92h-8.95v-15.32h8.95v15.32ZM31.11,36.92h6.95v-13.32h-6.95v13.32Z"/><path class="cls-5" d="M30.12,16.64h12.92v4.46c0,1.1-.9,2-2,2h-8.92c-1.1,0-2-.9-2-2v-4.46h0Z"/><rect class="cls-5" x="38.1" y="3.51" width="3.01" height="5.14" transform="translate(79.2 12.15) rotate(180)"/><rect class="cls-5" x="38.1" y="-3.32" width="3.01" height="10.65" rx="1.5" ry="1.5" transform="translate(37.6 41.6) rotate(-90)"/><rect class="cls-3" x="37.6" y="4.01" width="2.01" height="4.14"/><path class="cls-3" d="M40.6,3.01h1.82c.55,0,1-.45,1-1s-.45-1-1-1h-7.64c-.55,0-1,.45-1,1s.45,1,1,1h5.82Z"/><path class="cls-3" d="M36.6,9.14h-7.55c-1.93,0-3.5,1.57-3.5,3.5v2c0,.83.67,1.5,1.5,1.5h43.96v-7h-34.41Z"/><rect class="cls-3" x="37.6" y="4.01" width="2.01" height="4.14"/><path class="cls-3" d="M28.62,21.1c0,.83.67,1.5,1.5,1.5h8.92c.83,0,1.5-.67,1.5-1.5v-3.96h-11.92v3.96Z"/><path class="cls-3" d="M40.6,3.01h1.82c.55,0,1-.45,1-1s-.45-1-1-1h-7.64c-.55,0-1,.45-1,1s.45,1,1,1h5.82Z"/><path class="cls-3" d="M36.6,9.14h-7.55c-1.93,0-3.5,1.57-3.5,3.5v2c0,.83.67,1.5,1.5,1.5h43.96v-7h-34.41Z"/><path class="cls-4" d="M72,8.14h-31.4v-4.14h1.82c1.1,0,2-.9,2-2s-.9-2-2-2h-7.64c-1.1,0-2,.9-2,2s.9,2,2,2h1.82v4.14h-7.55c-2.48,0-4.5,2.02-4.5,4.5v2c0,1.38,1.12,2.5,2.5,2.5h.58v3.96c0,1.38,1.12,2.5,2.5,2.5h8.92c1.38,0,2.5-1.12,2.5-2.5v-3.96h30.46v-9ZM34.78,3.01c-.55,0-1-.45-1-1s.45-1,1-1h7.64c.55,0,1,.45,1,1s-.45,1-1,1h-7.64ZM39.6,4.01v4.14h-2.01v-4.14h2.01ZM40.54,21.1c0,.83-.67,1.5-1.5,1.5h-8.92c-.83,0-1.5-.67-1.5-1.5v-3.96h11.92v3.96ZM71,16.14H27.04c-.83,0-1.5-.67-1.5-1.5v-2c0-1.93,1.57-3.5,3.5-3.5h41.96v7Z"/><rect class="cls-5" x="11.5" y="37.42" width="52" height="8" rx="4" ry="4"/><path class="cls-3" d="M57.5,37.92H13.5c-1.93,0-3.5,1.57-3.5,3.5s1.57,3.5,3.5,3.5h44c1.93,0,3.5-1.57,3.5-3.5s-1.57-3.5-3.5-3.5Z"/><path class="cls-3" d="M22.03,77.42c.15.68.77,1.18,1.46,1.18h24.02c.7,0,1.32-.5,1.46-1.18l6.92-31.5H15.12l6.92,31.5Z"/><path class="cls-4" d="M57.5,36.92H13.5c-2.48,0-4.5,2.02-4.5,4.5s2.02,4.5,4.5,4.5h.59l6.96,31.72c.25,1.14,1.28,1.96,2.44,1.96h24.02c1.17,0,2.19-.83,2.44-1.96l6.96-31.72h.59c2.48,0,4.5-2.02,4.5-4.5s-2.02-4.5-4.5-4.5ZM48.98,77.42c-.15.68-.77,1.18-1.46,1.18h-24.02c-.7,0-1.32-.5-1.46-1.18l-6.92-31.5h40.78l-6.92,31.5ZM57.5,44.92H13.5c-1.93,0-3.5-1.57-3.5-3.5s1.57-3.5,3.5-3.5h44c1.93,0,3.5,1.57,3.5,3.5s-1.57,3.5-3.5,3.5Z"/><g class="cls-12"><path class="cls-8" d="M61.5,28.91v4M63.5,30.91h-4"/><path class="cls-6" d="M61.5,33.22c-.17,0-.31-.14-.31-.31v-1.69h-1.69c-.17,0-.31-.14-.31-.31s.14-.31.31-.31h1.69v-1.69c0-.17.14-.31.31-.31s.31.14.31.31v1.69h1.69c.17,0,.31.14.31.31s-.14.31-.31.31h-1.69v1.69c0,.17-.14.31-.31.31Z"/></g><path class="cls-7" d="M68.27,36.64v6.46M71.5,39.87h-6.46"/><path class="cls-8" d="M68.27,43.6c-.27,0-.5-.22-.5-.5v-2.73h-2.73c-.27,0-.5-.22-.5-.5s.22-.5.5-.5h2.73v-2.73c0-.27.22-.5.5-.5s.5.22.5.5v2.73h2.73c.27,0,.5.22.5.5s-.22.5-.5.5h-2.73v2.73c0,.27-.22.5-.5.5Z"/><g class="cls-11"><path class="cls-9" d="M11.26,32c-.27,0-.5-.22-.5-.5v-2.73h-2.73c-.27,0-.5-.22-.5-.5s.22-.5.5-.5h2.73v-2.73c0-.27.22-.5.5-.5s.5.22.5.5v2.73h2.73c.27,0,.5.22.5.5s-.22.5-.5.5h-2.73v2.73c0,.27-.22.5-.5.5Z"/></g><g class="cls-10"><path class="cls-8" d="M15.8,10.29c-.28,0-.5.22-.5.5v2c0,.28.22.5.5.5s.5-.22.5-.5v-2c0-.28-.22-.5-.5-.5Z"/><path class="cls-8" d="M15.8,16.29c-.28,0-.5.22-.5.5v2c0,.28.22.5.5.5s.5-.22.5-.5v-2c0-.28-.22-.5-.5-.5Z"/><path class="cls-8" d="M17.21,13.87c.13,0,.26-.05.35-.15l1.41-1.41c.2-.2.2-.51,0-.71s-.51-.2-.71,0l-1.41,1.41c-.2.2-.2.51,0,.71.1.1.23.15.35.15Z"/><path class="cls-8" d="M14.03,15.85l-1.41,1.41c-.2.2-.2.51,0,.71.1.1.23.15.35.15s.26-.05.35-.15l1.41-1.41c.2-.2.2-.51,0-.71s-.51-.2-.71,0Z"/><path class="cls-8" d="M19.8,14.29h-2c-.28,0-.5.22-.5.5s.22.5.5.5h2c.28,0,.5-.22.5-.5s-.22-.5-.5-.5Z"/><path class="cls-8" d="M14.3,14.79c0-.28-.22-.5-.5-.5h-2c-.28,0-.5.22-.5.5s.22.5.5.5h2c.28,0,.5-.22.5-.5Z"/><path class="cls-8" d="M17.57,15.85c-.2-.2-.51-.2-.71,0s-.2.51,0,.71l1.41,1.41c.1.1.23.15.35.15s.26-.05.35-.15c.2-.2.2-.51,0-.71l-1.41-1.41Z"/><path class="cls-8" d="M13.33,11.61c-.2-.2-.51-.2-.71,0s-.2.51,0,.71l1.41,1.41c.1.1.23.15.35.15s.26-.05.35-.15c.2-.2.2-.51,0-.71l-1.41-1.41Z"/></g><g class="cls-11"><path class="cls-1" d="M53.36,22.68c-.17,0-.31.14-.31.31v1.23c0,.17.14.31.31.31s.31-.14.31-.31v-1.23c0-.17-.14-.31-.31-.31Z"/><path class="cls-1" d="M53.36,26.37c-.17,0-.31.14-.31.31v1.23c0,.17.14.31.31.31s.31-.14.31-.31v-1.23c0-.17-.14-.31-.31-.31Z"/><path class="cls-1" d="M54.23,24.88c.08,0,.16-.03.22-.09l.87-.87c.12-.12.12-.31,0-.43s-.31-.12-.43,0l-.87.87c-.12.12-.12.31,0,.43.06.06.14.09.22.09Z"/><path class="cls-1" d="M52.28,26.1l-.87.87c-.12.12-.12.31,0,.43.06.06.14.09.22.09s.16-.03.22-.09l.87-.87c.12-.12.12-.31,0-.43s-.31-.12-.43,0Z"/><path class="cls-1" d="M55.82,25.14h-1.23c-.17,0-.31.14-.31.31s.14.31.31.31h1.23c.17,0,.31-.14.31-.31s-.14-.31-.31-.31Z"/><path class="cls-1" d="M52.44,25.45c0-.17-.14-.31-.31-.31h-1.23c-.17,0-.31.14-.31.31s.14.31.31.31h1.23c.17,0,.31-.14.31-.31Z"/><path class="cls-1" d="M54.45,26.1c-.12-.12-.31-.12-.43,0s-.12.31,0,.43l.87.87c.06.06.14.09.22.09s.16-.03.22-.09c.12-.12.12-.31,0-.43l-.87-.87Z"/><path class="cls-1" d="M51.84,23.49c-.12-.12-.31-.12-.43,0s-.12.31,0,.43l.87.87c.06.06.14.09.22.09s.16-.03.22-.09c.12-.12.12-.31,0-.43l-.87-.87Z"/></g><circle class="cls-2" cx="27.74" cy="35.1" r="1"/><circle class="cls-2" cx="31.11" cy="32.51" r="1"/><circle class="cls-2" cx="42.04" cy="35.54" r="1"/></g></g></g></svg>