<?xml version="1.0" encoding="UTF-8"?><svg id="Layer_2" xmlns="http://www.w3.org/2000/svg" viewBox="0 0 73.5 74.31"><defs><style>.cls-1{fill:#98a2b3;}.cls-1,.cls-2,.cls-3,.cls-4,.cls-5,.cls-6,.cls-7{stroke-width:0px;}.cls-2{fill:#adddc1;}.cls-2,.cls-8{opacity:.5;}.cls-3{fill:#667085;}.cls-4,.cls-5{fill:#419c67;}.cls-9,.cls-10{stroke:#419c67;}.cls-9,.cls-10,.cls-11,.cls-12{fill:none;stroke-miterlimit:10;}.cls-9,.cls-12{stroke-dasharray:0 0 3.84 3.84;}.cls-5{opacity:.75;}.cls-6{fill:#eaecf0;}.cls-11{opacity:.4;stroke:#bbdff2;stroke-linecap:round;}.cls-7{fill:#d0d5dd;}.cls-12{stroke:#adddc1;}</style></defs><g id="Features__Icons"><g id="Modular-Layout"><rect class="cls-6" x="20.13" y="57.19" width="17.13" height="17.13" rx="1.5" ry="1.5"/><path class="cls-3" d="M34.75,55.19h-14.13c-1.38,0-2.5,1.12-2.5,2.5v14.13c0,1.38,1.12,2.5,2.5,2.5h14.13c1.38,0,2.5-1.12,2.5-2.5v-14.13c0-1.38-1.12-2.5-2.5-2.5ZM36.25,71.81c0,.83-.67,1.5-1.5,1.5h-14.13c-.83,0-1.5-.67-1.5-1.5v-14.13c0-.83.67-1.5,1.5-1.5h14.13c.83,0,1.5.67,1.5,1.5v14.13Z"/><rect class="cls-6" x="56.38" y="57.19" width="17.12" height="17.13" rx="1.5" ry="1.5"/><path class="cls-3" d="M71,55.19h-14.12c-1.38,0-2.5,1.12-2.5,2.5v14.13c0,1.38,1.12,2.5,2.5,2.5h14.12c1.38,0,2.5-1.12,2.5-2.5v-14.13c0-1.38-1.12-2.5-2.5-2.5ZM72.5,71.81c0,.83-.67,1.5-1.5,1.5h-14.12c-.83,0-1.5-.67-1.5-1.5v-14.13c0-.83.67-1.5,1.5-1.5h14.12c.83,0,1.5.67,1.5,1.5v14.13Z"/><g class="cls-8"><rect class="cls-12" x="36.75" y="55.69" width="18.13" height="18.13" rx="2" ry="2"/></g><rect class="cls-2" x="40.75" y="57.69" width="10.13" height="10.13" rx="2" ry="2" transform="translate(108.56 16.94) rotate(90)"/><rect class="cls-10" x="40.38" y="28.36" width="18.13" height="18.13" rx="2" ry="2" transform="translate(5.69 -6.52) rotate(8)"/><rect class="cls-4" x="45.51" y="31.51" width="10.13" height="10.13" rx="2" ry="2" transform="translate(93.83 -8.42) rotate(98)"/><rect class="cls-9" x=".5" y="55.69" width="18.13" height="18.13" rx="2" ry="2"/><rect class="cls-5" x="3.5" y="61.69" width="10.13" height="10.13" rx="2" ry="2" transform="translate(75.31 58.19) rotate(90)"/><g id="Claw"><path class="cls-7" d="M67.64,23.26c-.42-1.67-1.92-2.79-3.57-2.79-.29,0-.59.04-.89.11-.95.24-1.76.83-2.26,1.68-.51.84-.65,1.83-.42,2.79.49,1.97,2.49,3.17,4.46,2.68,1.97-.49,3.17-2.49,2.68-4.46ZM64.07,26.37c-1,0-1.9-.67-2.16-1.68-.29-1.19.43-2.4,1.62-2.69,1.19-.3,2.4.43,2.69,1.62.14.57.05,1.17-.25,1.68s-.79.87-1.37,1.01c-.18.04-.36.07-.54.07Z"/><path class="cls-3" d="M68.61,23.01c-.62-2.5-3.17-4.03-5.67-3.41-1.21.3-2.24,1.06-2.88,2.13-.64,1.07-.83,2.33-.53,3.54s1.06,2.24,2.13,2.88c.74.44,1.56.67,2.4.67.38,0,.76-.05,1.14-.14,1.21-.3,2.24-1.06,2.88-2.13.64-1.07.83-2.33.53-3.54ZM60.49,25.04c-.24-.95-.09-1.94.42-2.79.51-.84,1.31-1.44,2.26-1.68.3-.07.59-.11.89-.11,1.65,0,3.16,1.12,3.57,2.79.49,1.97-.71,3.97-2.68,4.46-1.97.49-3.97-.71-4.46-2.68Z"/><path class="cls-3" d="M65.97,25.29c.31-.51.4-1.11.25-1.68-.3-1.19-1.5-1.92-2.69-1.62-1.19.3-1.91,1.5-1.62,2.69.25,1.01,1.16,1.68,2.16,1.68.18,0,.36-.02.54-.07.57-.14,1.06-.5,1.37-1.01Z"/><path class="cls-7" d="M64.32,9.95c-.42-1.67-1.92-2.79-3.57-2.79-.29,0-.59.04-.89.11-1.97.49-3.17,2.49-2.68,4.46.24.95.83,1.76,1.68,2.26s1.83.65,2.79.42c1.97-.49,3.17-2.49,2.68-4.46ZM60.75,13.07c-.4,0-.79-.11-1.14-.32-.51-.31-.87-.79-1.01-1.37-.14-.57-.05-1.17.25-1.68s.79-.87,1.37-1.01c.57-.15,1.17-.06,1.68.25.51.31.87.79,1.01,1.37.14.57.05,1.17-.25,1.68s-.79.87-1.37,1.01c-.18.04-.36.07-.54.07Z"/><path class="cls-3" d="M65.29,9.71c-.62-2.5-3.17-4.03-5.67-3.41-2.5.62-4.03,3.17-3.41,5.67.3,1.21,1.06,2.24,2.13,2.88.74.44,1.56.67,2.4.67.38,0,.76-.05,1.14-.14,1.21-.3,2.24-1.06,2.88-2.13.64-1.07.83-2.33.53-3.54ZM58.85,14c-.84-.51-1.44-1.31-1.68-2.26-.49-1.97.71-3.97,2.68-4.46.3-.07.59-.11.89-.11,1.65,0,3.16,1.12,3.57,2.79.49,1.97-.71,3.97-2.68,4.46-.95.24-1.94.09-2.79-.42Z"/><path class="cls-3" d="M62.65,11.99c.31-.51.4-1.11.25-1.68-.14-.58-.5-1.06-1.01-1.37-.51-.31-1.11-.4-1.68-.25-.58.14-1.06.5-1.37,1.01s-.4,1.11-.25,1.68c.14.58.5,1.06,1.01,1.37.35.21.74.32,1.14.32.18,0,.36-.02.54-.07.57-.14,1.06-.5,1.37-1.01Z"/><path class="cls-7" d="M32.09,32.12c-.24-.95-.83-1.76-1.67-2.26-.58-.35-1.23-.53-1.89-.53-.3,0-.6.04-.9.11-1.97.49-3.17,2.49-2.68,4.46.49,1.97,2.49,3.17,4.46,2.68,1.97-.49,3.17-2.49,2.68-4.46ZM28.52,35.23c-.4,0-.79-.11-1.14-.32-.51-.31-.87-.79-1.01-1.37-.14-.57-.05-1.17.25-1.68s.79-.87,1.37-1.01c.57-.14,1.17-.05,1.68.25.51.31.87.79,1.01,1.37.3,1.19-.43,2.4-1.62,2.69-.18.04-.36.07-.54.07Z"/><path class="cls-3" d="M33.06,31.88c-.3-1.21-1.06-2.24-2.13-2.88-1.07-.64-2.33-.83-3.54-.53-2.5.62-4.03,3.17-3.41,5.67.3,1.21,1.06,2.24,2.13,2.88.74.44,1.56.67,2.4.67.38,0,.76-.05,1.14-.14,2.5-.62,4.03-3.17,3.41-5.67ZM24.95,33.9c-.49-1.97.71-3.97,2.68-4.46.3-.07.6-.11.9-.11.66,0,1.31.18,1.89.53.84.51,1.44,1.31,1.67,2.26.49,1.97-.71,3.97-2.68,4.46-1.97.49-3.97-.71-4.46-2.68Z"/><path class="cls-3" d="M30.67,32.47c-.14-.57-.5-1.06-1.01-1.37-.51-.31-1.11-.39-1.68-.25-.58.14-1.06.5-1.37,1.01s-.4,1.11-.25,1.68c.14.58.5,1.06,1.01,1.37.35.21.74.32,1.14.32.18,0,.36-.02.54-.07,1.19-.3,1.91-1.5,1.62-2.69Z"/><path class="cls-7" d="M28.77,18.82c-.24-.95-.83-1.76-1.68-2.26-.58-.35-1.23-.53-1.89-.53-.3,0-.6.04-.9.11-1.97.49-3.17,2.49-2.68,4.46.49,1.97,2.49,3.17,4.46,2.68,1.97-.49,3.17-2.49,2.68-4.46ZM25.2,21.93c-.4,0-.79-.11-1.14-.32-.51-.31-.87-.79-1.01-1.37-.14-.57-.05-1.17.25-1.68s.79-.87,1.37-1.01c.57-.14,1.17-.05,1.68.25.51.31.87.79,1.01,1.37.3,1.19-.43,2.4-1.62,2.69-.18.04-.36.07-.54.07Z"/><path class="cls-3" d="M29.74,18.58c-.3-1.21-1.06-2.24-2.13-2.88-1.07-.64-2.33-.83-3.54-.53-1.21.3-2.24,1.06-2.88,2.13-.64,1.07-.83,2.33-.53,3.54s1.06,2.24,2.13,2.88c.74.44,1.56.67,2.4.67.38,0,.76-.05,1.14-.14,1.21-.3,2.24-1.06,2.88-2.13.64-1.07.83-2.33.53-3.54ZM21.63,20.6c-.49-1.97.71-3.97,2.68-4.46.3-.07.6-.11.9-.11.66,0,1.31.18,1.89.53.84.51,1.44,1.31,1.68,2.26.49,1.97-.71,3.97-2.68,4.46-1.97.49-3.97-.71-4.46-2.68Z"/><path class="cls-3" d="M27.36,19.17c-.14-.57-.5-1.06-1.01-1.37-.51-.31-1.11-.39-1.68-.25-.57.14-1.06.5-1.37,1.01s-.4,1.11-.25,1.68c.14.58.5,1.06,1.01,1.37.35.21.74.32,1.14.32.18,0,.36-.02.54-.07,1.19-.3,1.91-1.5,1.62-2.69Z"/><path class="cls-1" d="M47.65,9.17c.67-.17,1.14-.77,1.14-1.46V2.5c0-.47-.21-.9-.57-1.18-.27-.21-.59-.32-.92-.32-.12,0-.24.01-.37.04l-12.62,3.15c-.45.11-.82.42-1.01.84-.19.42-.17.9.05,1.31l2.45,4.61c.33.61,1.01.92,1.69.75l10.16-2.53Z"/><path class="cls-3" d="M47.83.53c-.61-.48-1.39-.64-2.14-.46l-12.62,3.15c-.75.19-1.36.7-1.68,1.41s-.29,1.51.08,2.19l2.45,4.61c.44.83,1.3,1.33,2.21,1.33.2,0,.4-.02.61-.07l10.16-2.53c1.12-.28,1.89-1.28,1.9-2.42V2.5c0-.77-.35-1.49-.96-1.97ZM34.81,10.96l-2.45-4.61c-.22-.41-.24-.89-.05-1.31.19-.42.56-.73,1.01-.84l12.62-3.15c.12-.03.24-.04.37-.04.33,0,.65.11.92.32.37.29.58.72.58,1.18v5.22c0,.69-.47,1.29-1.14,1.46l-10.16,2.53c-.67.17-1.36-.14-1.69-.75Z"/><path class="cls-7" d="M40.96,29.42l-2.79-1.19c-.71-.31-1.25-.94-1.44-1.69l-.92-3.7c-.16-.65-.06-1.32.28-1.89l2.45-4.07c.21-.34.27-.75.17-1.13l-1.51-6.05c-.17-.68-.78-1.14-1.46-1.14-.12,0-.24.01-.36.04l-5.65,1.41c-.55.14-.98.57-1.1,1.13l-1.83,8.22c-.05.23-.05.46,0,.69l2.97,11.93c.09.38.34.72.68.92l7.9,4.75c.42.25.92.29,1.37.09.45-.19.77-.58.87-1.05l1.24-5.56c.16-.71-.21-1.42-.87-1.71Z"/><path class="cls-3" d="M40.35,28.5l-2.79-1.19c-.43-.18-.75-.56-.87-1.02l-.92-3.7c-.1-.38-.03-.8.17-1.14l2.45-4.07c.34-.57.44-1.25.28-1.89l-1.51-6.05c-.33-1.34-1.7-2.15-3.03-1.82l-5.65,1.41c-.92.23-1.63.95-1.84,1.88l-1.83,8.22c-.08.38-.08.77.01,1.15l2.97,11.93c.16.64.57,1.2,1.14,1.54l7.9,4.75c.4.24.84.36,1.28.36.33,0,.67-.07.99-.21.75-.32,1.28-.96,1.45-1.75l1.24-5.56c.26-1.17-.35-2.37-1.46-2.84ZM40.83,31.12l-1.24,5.56c-.11.48-.42.86-.87,1.05-.45.19-.95.16-1.37-.09l-7.9-4.75c-.34-.2-.59-.54-.68-.92l-2.97-11.93c-.06-.22-.06-.46,0-.69l1.83-8.22c.12-.56.55-.99,1.1-1.13l5.65-1.41c.12-.03.24-.04.36-.04.67,0,1.29.46,1.46,1.14l1.51,6.05c.1.39.04.79-.17,1.13l-2.45,4.07c-.34.57-.45,1.25-.28,1.89l.92,3.7c.19.75.73,1.39,1.44,1.69l2.79,1.19c.66.28,1.03,1,.87,1.71Z"/><path class="cls-6" d="M48.09,14.17c.87-1.44,1.12-3.13.71-4.77-.41-1.63-1.42-3.01-2.87-3.88-.99-.6-2.1-.9-3.23-.9-.51,0-1.03.06-1.53.19-1.63.41-3.01,1.42-3.87,2.87-.87,1.44-1.12,3.13-.71,4.77.84,3.37,4.26,5.43,7.63,4.59,1.63-.41,3.01-1.42,3.88-2.87ZM42.69,14.22c-.59,0-1.17-.16-1.69-.47-.76-.45-1.29-1.17-1.5-2.03s-.08-1.74.37-2.5,1.17-1.29,2.03-1.5c.85-.21,1.74-.08,2.5.37s1.29,1.17,1.5,2.03c.44,1.76-.64,3.56-2.4,4-.27.07-.53.1-.8.1Z"/><path class="cls-3" d="M48.77,9.16c-.97-3.9-4.94-6.29-8.85-5.32-3.9.97-6.29,4.94-5.31,8.85.83,3.31,3.81,5.53,7.08,5.53.58,0,1.17-.07,1.76-.22,3.9-.97,6.29-4.94,5.32-8.85ZM35.58,12.45c-.41-1.63-.15-3.33.71-4.77.87-1.44,2.24-2.46,3.87-2.87.51-.13,1.02-.19,1.53-.19,1.13,0,2.24.31,3.23.9,1.44.87,2.46,2.24,2.87,3.88.41,1.63.15,3.33-.71,4.77s-2.24,2.46-3.88,2.87c-3.37.84-6.79-1.22-7.63-4.59Z"/><path class="cls-1" d="M43.92,10.37c-.15-.59-.52-1.1-1.05-1.41-.36-.22-.77-.33-1.18-.33-.19,0-.37.02-.56.07-.59.15-1.1.52-1.41,1.05-.32.53-.41,1.14-.26,1.74.15.59.52,1.1,1.05,1.41.53.32,1.15.41,1.74.26,1.23-.31,1.98-1.56,1.67-2.79Z"/><path class="cls-3" d="M44.89,10.13c-.21-.85-.75-1.57-1.5-2.03s-1.64-.59-2.5-.37c-.85.21-1.57.75-2.03,1.5s-.59,1.64-.37,2.5.75,1.57,1.5,2.03c.52.31,1.1.47,1.69.47.27,0,.54-.03.8-.1,1.76-.44,2.84-2.23,2.4-4ZM40.51,12.89c-.53-.32-.9-.82-1.05-1.41-.15-.59-.06-1.21.26-1.74.32-.53.82-.9,1.41-1.05.18-.05.37-.07.56-.07.41,0,.82.11,1.18.33.53.32.9.82,1.05,1.41.31,1.23-.44,2.48-1.67,2.79-.59.15-1.21.06-1.74-.26Z"/><path class="cls-7" d="M61.01,11.52c-.06-.23-.17-.44-.31-.61l-5.48-6.4c-.29-.34-.7-.53-1.13-.53-.12,0-.25.01-.37.05l-5.65,1.41c-.8.2-1.29,1.02-1.09,1.82l1.51,6.05c.09.38.34.72.68.92l4.07,2.45c.56.34.98.9,1.14,1.54l.92,3.7c.19.76,0,1.57-.48,2.17l-1.9,2.36c-.45.56-.44,1.37.03,1.92l3.7,4.33c.32.37.77.56,1.27.52.49-.04.91-.3,1.16-.72l4.75-7.9c.21-.34.27-.75.17-1.13l-2.97-11.93Z"/><path class="cls-3" d="M63.95,23.2l-2.97-11.93c-.09-.38-.28-.73-.53-1.02l-5.48-6.4c-.62-.72-1.58-1.03-2.5-.8l-5.65,1.41c-1.34.33-2.15,1.69-1.82,3.03l1.51,6.05c.16.64.57,1.2,1.14,1.54l4.07,2.45c.34.2.59.54.68.92l.92,3.7c.11.45,0,.94-.29,1.3l-1.9,2.36c-.75.94-.73,2.28.05,3.19l3.7,4.33c.48.56,1.16.87,1.89.87.07,0,.14,0,.22,0,.81-.07,1.52-.51,1.93-1.2l4.75-7.9c.34-.57.44-1.24.28-1.89ZM62.81,24.58l-4.75,7.9c-.25.42-.67.68-1.16.72-.5.04-.95-.15-1.27-.52l-3.7-4.33c-.47-.55-.48-1.35-.03-1.92l1.9-2.36c.49-.61.67-1.42.48-2.17l-.92-3.7c-.16-.64-.57-1.2-1.14-1.54l-4.07-2.45c-.34-.2-.59-.54-.68-.92l-1.51-6.05c-.2-.8.29-1.62,1.09-1.82l5.65-1.41c.12-.03.25-.05.37-.05.43,0,.84.19,1.13.53l5.48,6.4c.15.17.26.39.31.61l2.97,11.93c.1.39.04.79-.17,1.13Z"/></g><line class="cls-11" x1="45.14" y1="49.15" x2="45.14" y2="53.15"/><line class="cls-11" x1="47.83" y1="50.15" x2="47.83" y2="52.15"/></g></g></svg>