<?xml version="1.0" encoding="UTF-8"?><svg id="Layer_2" xmlns="http://www.w3.org/2000/svg" viewBox="0 0 73.5 79.6"><defs><style>.cls-1{fill:#144b66;}.cls-1,.cls-2,.cls-3,.cls-4,.cls-5,.cls-6,.cls-7,.cls-8,.cls-9,.cls-10,.cls-11{stroke-width:0px;}.cls-2{fill:none;}.cls-3{fill:#f3e288;}.cls-4{fill:#f2cdf0;}.cls-5{fill:#f6eaa7;}.cls-6{fill:#1d2939;}.cls-7{fill:#d0d5dd;}.cls-8{fill:#e39ae1;}.cls-12{opacity:.5;}.cls-13{opacity:.75;}.cls-9{fill:#f2f4f7;}.cls-10{fill:#e8cc00;}.cls-11{fill:#fff;}</style></defs><g id="Features__Icons"><g id="Automated-Watering"><path class="cls-7" d="M38.5,45.42h-21.01l7.05,32.11c.2.92,1.01,1.57,1.95,1.57h24.02c.94,0,1.75-.65,1.95-1.57l7.05-32.11h-21.01Z"/><g class="cls-13"><circle class="cls-3" cx="2.5" cy="35.1" r="1.5"/><path class="cls-9" d="M2.5,32.6c-1.38,0-2.5,1.12-2.5,2.5s1.12,2.5,2.5,2.5,2.5-1.12,2.5-2.5-1.12-2.5-2.5-2.5ZM2.5,36.6c-.83,0-1.5-.67-1.5-1.5s.67-1.5,1.5-1.5,1.5.67,1.5,1.5-.67,1.5-1.5,1.5Z"/></g><g class="cls-13"><path class="cls-11" d="M8.26,17.35c-.51,0-.92.41-.92.92s.41.92.92.92.92-.41.92-.92-.41-.92-.92-.92Z"/><path class="cls-3" d="M8.26,16.74c-.85,0-1.54.69-1.54,1.54s.69,1.54,1.54,1.54,1.54-.69,1.54-1.54-.69-1.54-1.54-1.54ZM8.26,19.2c-.51,0-.92-.41-.92-.92s.41-.92.92-.92.92.41.92.92-.41.92-.92.92Z"/></g><path class="cls-7" d="M31.04,7.64h42.46v8H29.04c-1.1,0-2-.9-2-2v-2c0-2.21,1.79-4,4-4Z"/><rect class="cls-1" x="33.61" y="23.1" width="7.95" height="14.32"/><path class="cls-6" d="M40.06,37.92h-8.95v-15.32h8.95v15.32ZM32.11,36.92h6.95v-13.32h-6.95v13.32Z"/><path class="cls-7" d="M31.12,16.64h12.92v4.46c0,1.1-.9,2-2,2h-8.92c-1.1,0-2-.9-2-2v-4.46h0Z"/><rect class="cls-7" x="39.1" y="3.51" width="3.01" height="5.14" transform="translate(81.2 12.15) rotate(180)"/><rect class="cls-7" x="39.1" y="-3.32" width="3.01" height="10.65" rx="1.5" ry="1.5" transform="translate(38.6 42.6) rotate(-90)"/><rect class="cls-2" x="38.6" y="4.01" width="2.01" height="4.14"/><path class="cls-2" d="M41.6,3.01h1.82c.55,0,1-.45,1-1s-.45-1-1-1h-7.64c-.55,0-1,.45-1,1s.45,1,1,1h5.82Z"/><path class="cls-2" d="M37.6,9.14h-7.55c-1.93,0-3.5,1.57-3.5,3.5v2c0,.83.67,1.5,1.5,1.5h43.96v-7h-34.41Z"/><rect class="cls-2" x="38.6" y="4.01" width="2.01" height="4.14"/><path class="cls-2" d="M29.62,21.1c0,.83.67,1.5,1.5,1.5h8.92c.83,0,1.5-.67,1.5-1.5v-3.96h-11.92v3.96Z"/><path class="cls-2" d="M41.6,3.01h1.82c.55,0,1-.45,1-1s-.45-1-1-1h-7.64c-.55,0-1,.45-1,1s.45,1,1,1h5.82Z"/><path class="cls-2" d="M37.6,9.14h-7.55c-1.93,0-3.5,1.57-3.5,3.5v2c0,.83.67,1.5,1.5,1.5h43.96v-7h-34.41Z"/><path class="cls-6" d="M73,8.14h-31.4v-4.14h1.82c1.1,0,2-.9,2-2s-.9-2-2-2h-7.64c-1.1,0-2,.9-2,2s.9,2,2,2h1.82v4.14h-7.55c-2.48,0-4.5,2.02-4.5,4.5v2c0,1.38,1.12,2.5,2.5,2.5h.58v3.96c0,1.38,1.12,2.5,2.5,2.5h8.92c1.38,0,2.5-1.12,2.5-2.5v-3.96h30.46v-9ZM35.78,3.01c-.55,0-1-.45-1-1s.45-1,1-1h7.64c.55,0,1,.45,1,1s-.45,1-1,1h-7.64ZM40.6,4.01v4.14h-2.01v-4.14h2.01ZM41.54,21.1c0,.83-.67,1.5-1.5,1.5h-8.92c-.83,0-1.5-.67-1.5-1.5v-3.96h11.92v3.96ZM72,16.14H28.04c-.83,0-1.5-.67-1.5-1.5v-2c0-1.93,1.57-3.5,3.5-3.5h41.96v7Z"/><rect class="cls-7" x="12.5" y="37.42" width="52" height="8" rx="4" ry="4"/><path class="cls-2" d="M58.5,37.92H14.5c-1.93,0-3.5,1.57-3.5,3.5s1.57,3.5,3.5,3.5h44c1.93,0,3.5-1.57,3.5-3.5s-1.57-3.5-3.5-3.5Z"/><path class="cls-2" d="M23.03,77.42c.15.68.77,1.18,1.46,1.18h24.02c.7,0,1.32-.5,1.46-1.18l6.92-31.5H16.12l6.92,31.5Z"/><path class="cls-6" d="M58.5,36.92H14.5c-2.48,0-4.5,2.02-4.5,4.5s2.02,4.5,4.5,4.5h.59l6.96,31.72c.25,1.14,1.28,1.96,2.44,1.96h24.02c1.17,0,2.19-.83,2.44-1.96l6.96-31.72h.59c2.48,0,4.5-2.02,4.5-4.5s-2.02-4.5-4.5-4.5ZM49.98,77.42c-.15.68-.77,1.18-1.46,1.18h-24.02c-.7,0-1.32-.5-1.46-1.18l-6.92-31.5h40.78l-6.92,31.5ZM58.5,44.92H14.5c-1.93,0-3.5-1.57-3.5-3.5s1.57-3.5,3.5-3.5h44c1.93,0,3.5,1.57,3.5,3.5s-1.57,3.5-3.5,3.5Z"/><g class="cls-13"><path class="cls-5" d="M62.5,28.91v4M64.5,30.91h-4"/><path class="cls-5" d="M62.5,33.22c-.17,0-.31-.14-.31-.31v-1.69h-1.69c-.17,0-.31-.14-.31-.31s.14-.31.31-.31h1.69v-1.69c0-.17.14-.31.31-.31s.31.14.31.31v1.69h1.69c.17,0,.31.14.31.31s-.14.31-.31.31h-1.69v1.69c0,.17-.14.31-.31.31Z"/></g><path class="cls-5" d="M69.27,36.64v6.46M72.5,39.87h-6.46"/><path class="cls-5" d="M69.27,43.6c-.27,0-.5-.22-.5-.5v-2.73h-2.73c-.27,0-.5-.22-.5-.5s.22-.5.5-.5h2.73v-2.73c0-.27.22-.5.5-.5s.5.22.5.5v2.73h2.73c.27,0,.5.22.5.5s-.22.5-.5.5h-2.73v2.73c0,.27-.22.5-.5.5Z"/><g class="cls-12"><path class="cls-8" d="M12.26,32c-.27,0-.5-.22-.5-.5v-2.73h-2.73c-.27,0-.5-.22-.5-.5s.22-.5.5-.5h2.73v-2.73c0-.27.22-.5.5-.5s.5.22.5.5v2.73h2.73c.27,0,.5.22.5.5s-.22.5-.5.5h-2.73v2.73c0,.27-.22.5-.5.5Z"/></g><path class="cls-10" d="M16.8,10.29c-.28,0-.5.22-.5.5v2c0,.28.22.5.5.5s.5-.22.5-.5v-2c0-.28-.22-.5-.5-.5Z"/><path class="cls-10" d="M16.8,16.29c-.28,0-.5.22-.5.5v2c0,.28.22.5.5.5s.5-.22.5-.5v-2c0-.28-.22-.5-.5-.5Z"/><path class="cls-10" d="M18.21,13.87c.13,0,.26-.05.35-.15l1.41-1.41c.2-.2.2-.51,0-.71s-.51-.2-.71,0l-1.41,1.41c-.2.2-.2.51,0,.71.1.1.23.15.35.15Z"/><path class="cls-10" d="M15.03,15.85l-1.41,1.41c-.2.2-.2.51,0,.71.1.1.23.15.35.15s.26-.05.35-.15l1.41-1.41c.2-.2.2-.51,0-.71s-.51-.2-.71,0Z"/><path class="cls-10" d="M20.8,14.29h-2c-.28,0-.5.22-.5.5s.22.5.5.5h2c.28,0,.5-.22.5-.5s-.22-.5-.5-.5Z"/><path class="cls-10" d="M15.3,14.79c0-.28-.22-.5-.5-.5h-2c-.28,0-.5.22-.5.5s.22.5.5.5h2c.28,0,.5-.22.5-.5Z"/><path class="cls-10" d="M18.57,15.85c-.2-.2-.51-.2-.71,0s-.2.51,0,.71l1.41,1.41c.1.1.23.15.35.15s.26-.05.35-.15c.2-.2.2-.51,0-.71l-1.41-1.41Z"/><path class="cls-10" d="M14.33,11.61c-.2-.2-.51-.2-.71,0s-.2.51,0,.71l1.41,1.41c.1.1.23.15.35.15s.26-.05.35-.15c.2-.2.2-.51,0-.71l-1.41-1.41Z"/><g class="cls-12"><path class="cls-4" d="M54.36,22.68c-.17,0-.31.14-.31.31v1.23c0,.17.14.31.31.31s.31-.14.31-.31v-1.23c0-.17-.14-.31-.31-.31Z"/><path class="cls-4" d="M54.36,26.37c-.17,0-.31.14-.31.31v1.23c0,.17.14.31.31.31s.31-.14.31-.31v-1.23c0-.17-.14-.31-.31-.31Z"/><path class="cls-4" d="M55.23,24.88c.08,0,.16-.03.22-.09l.87-.87c.12-.12.12-.31,0-.43s-.31-.12-.43,0l-.87.87c-.12.12-.12.31,0,.43.06.06.14.09.22.09Z"/><path class="cls-4" d="M53.28,26.1l-.87.87c-.12.12-.12.31,0,.43.06.06.14.09.22.09s.16-.03.22-.09l.87-.87c.12-.12.12-.31,0-.43s-.31-.12-.43,0Z"/><path class="cls-4" d="M56.82,25.14h-1.23c-.17,0-.31.14-.31.31s.14.31.31.31h1.23c.17,0,.31-.14.31-.31s-.14-.31-.31-.31Z"/><path class="cls-4" d="M53.44,25.45c0-.17-.14-.31-.31-.31h-1.23c-.17,0-.31.14-.31.31s.14.31.31.31h1.23c.17,0,.31-.14.31-.31Z"/><path class="cls-4" d="M55.45,26.1c-.12-.12-.31-.12-.43,0s-.12.31,0,.43l.87.87c.06.06.14.09.22.09s.16-.03.22-.09c.12-.12.12-.31,0-.43l-.87-.87Z"/><path class="cls-4" d="M52.84,23.49c-.12-.12-.31-.12-.43,0s-.12.31,0,.43l.87.87c.06.06.14.09.22.09s.16-.03.22-.09c.12-.12.12-.31,0-.43l-.87-.87Z"/></g></g></g></svg>